<?xml version="1.0" encoding="UTF-8" standalone="no"?>
<!-- Created with Inkscape (http://www.inkscape.org/) -->
<svg xmlns:dc="http://purl.org/dc/elements/1.1/" xmlns:cc="http://creativecommons.org/ns#" xmlns:rdf="http://www.w3.org/1999/02/22-rdf-syntax-ns#" xmlns:svg="http://www.w3.org/2000/svg" xmlns="http://www.w3.org/2000/svg" xmlns:sodipodi="http://sodipodi.sourceforge.net/DTD/sodipodi-0.dtd" xmlns:inkscape="http://www.inkscape.org/namespaces/inkscape" version="1.1" id="svg815" xml:space="preserve" width="883.3078" height="282.04065" viewBox="0 0 883.30778 282.04065" sodipodi:docname="logo-uib-horizontal.svg" inkscape:version="0.92.2 (5c3e80d, 2017-08-06)"><metadata id="metadata821"><rdf:RDF><cc:Work rdf:about=""><dc:format>image/svg+xml</dc:format><dc:type rdf:resource="http://purl.org/dc/dcmitype/StillImage"/><dc:title/></cc:Work></rdf:RDF></metadata><defs id="defs819"><clipPath clipPathUnits="userSpaceOnUse" id="clipPath837"><path d="M 0,595.28 H 841.89 V 0 H 0 Z" id="path835" inkscape:connector-curvature="0"/></clipPath></defs><sodipodi:namedview pagecolor="#ffffff" bordercolor="#666666" borderopacity="1" objecttolerance="10" gridtolerance="10" guidetolerance="10" inkscape:pageopacity="0" inkscape:pageshadow="2" inkscape:window-width="1920" inkscape:window-height="1017" id="namedview817" showgrid="false" fit-margin-top="0" fit-margin-left="0" fit-margin-right="-0.6" fit-margin-bottom="0" inkscape:pagecheckerboard="true" showborder="true" borderlayer="false" inkscape:zoom="1.0684048" inkscape:cx="441.65381" inkscape:cy="139.35108" inkscape:window-x="-8" inkscape:window-y="-8" inkscape:window-maximized="1" inkscape:current-layer="g823"/><g id="g823" inkscape:groupmode="layer" inkscape:label="292234_logo-uib-horizontal" transform="matrix(1.3333333,0,0,-1.3333333,-119.6062,539.54292)"><path d="m 343.236,193.155 h -2.373 v 211.502 h 2.373 z" style="fill:#005db9;fill-opacity:1;fill-rule:nonzero;stroke:none" id="path829" inkscape:connector-curvature="0"/><g id="g831"><g id="g833" clip-path="url(#clipPath837)"><g id="g839" transform="translate(517.6641,248.8047)"><path d="m 0,0 4.135,-0.765 v -1.339 c -1.924,0.096 -4.038,0.144 -6.01,0.144 -2.02,0 -4.136,-0.048 -6.012,-0.144 v 1.339 L -3.799,0 v 27.357 l -4.088,0.765 v 1.339 c 1.876,-0.094 3.992,-0.142 6.012,-0.142 1.972,0 4.086,0.048 6.01,0.142 V 28.122 L 0,27.357 Z" style="fill:#231f20;fill-opacity:1;fill-rule:nonzero;stroke:none" id="path841" inkscape:connector-curvature="0"/></g><g id="g843" transform="translate(532.7158,248.8047)"><path d="m 0,0 4.087,-0.765 v -1.339 c -3.75,0.191 -8.078,0.191 -11.877,0 v 1.339 L -3.653,0 v 28.696 l -3.657,0.765 v 1.34 c 2.261,0 4.618,0.191 6.829,0.525 H 0 Z" style="fill:#231f20;fill-opacity:1;fill-rule:nonzero;stroke:none" id="path845" inkscape:connector-curvature="0"/></g><g id="g847" transform="translate(546.4199,248.8047)"><path d="m 0,0 4.088,-0.765 v -1.339 c -3.752,0.191 -8.079,0.191 -11.878,0 v 1.339 L -3.655,0 v 28.696 l -3.656,0.765 v 1.34 c 2.261,0 4.618,0.191 6.83,0.525 H 0 Z" style="fill:#231f20;fill-opacity:1;fill-rule:nonzero;stroke:none" id="path849" inkscape:connector-curvature="0"/></g><g id="g851" transform="translate(556.5654,260.4268)"><path d="m 0,0 11.442,0.766 c 0,0 0.146,0.381 0.146,2.007 0,3.302 -1.972,5.024 -4.376,5.024 C 3.269,7.797 0.671,4.304 0,0 m -3.752,-2.728 c 0,8.133 5.482,11.958 11.204,11.958 3.847,0 7.935,-1.626 7.935,-7.459 L 14.713,-1.196 H -0.193 l -0.048,-0.861 c 0,-6.17 2.789,-9.279 7.886,-9.279 2.98,0 5.29,0.671 7.308,1.867 l 0.481,-1.147 c -1.394,-1.197 -4.616,-3.588 -8.943,-3.588 -6.781,0 -10.243,5.022 -10.243,11.476" style="fill:#231f20;fill-opacity:1;fill-rule:nonzero;stroke:none" id="path853" inkscape:connector-curvature="0"/></g><g id="g855" transform="translate(587.7715,252.2002)"><path d="m 0,0 c 0,3.109 -2.885,3.539 -5.482,4.545 -3.556,1.386 -6.395,2.392 -6.395,6.455 0,3.828 3.029,6.457 7.741,6.457 2.164,0 4.569,-0.575 6.396,-1.482 l -1.394,-5.882 -1.394,0.239 -0.338,4.782 c 0,0 -0.962,0.909 -3.51,0.909 -2.74,0 -4.325,-1.435 -4.325,-3.827 0,-3.109 2.739,-3.444 5.238,-4.304 3.415,-1.197 7.116,-2.393 7.116,-6.697 0,-4.542 -4.231,-7.173 -8.557,-7.173 -4.859,0 -6.973,1.483 -6.973,1.483 l 1.396,6.121 1.393,-0.237 0.338,-4.785 c 0,0 1.009,-1.147 3.895,-1.147 C -1.635,-4.543 0,-2.63 0,0" style="fill:#231f20;fill-opacity:1;fill-rule:nonzero;stroke:none" id="path857" inkscape:connector-curvature="0"/></g><g id="g859" transform="translate(614.168,263.1045)"><path d="m 0,0 v -14.539 h 4.907 c 5.77,0 7.404,3.492 7.404,7.269 0,4.114 -2.5,7.27 -8.8,7.27 z m 2.597,1.866 c 6.349,0 8.32,1.531 8.32,5.595 0,3.731 -1.587,5.836 -6.926,5.836 H 0 V 1.866 Z M 8.8,1.149 c 5.579,-1.531 7.551,-5.023 7.551,-8.657 0,-5.069 -3.415,-8.993 -10.196,-8.993 -3.46,0 -5.962,0.241 -8.461,0.241 -2.308,0 -3.318,0 -5.579,-0.144 v 1.34 l 4.04,0.764 v 27.358 l -4.04,0.764 v 1.34 c 1.396,-0.095 2.789,-0.142 4.185,-0.142 2.549,0 4.904,0.189 8.126,0.189 6.877,0 10.577,-2.486 10.577,-7.27 0,-3.778 -2.692,-5.69 -6.203,-6.79" style="fill:#231f20;fill-opacity:1;fill-rule:nonzero;stroke:none" id="path861" inkscape:connector-curvature="0"/></g><g id="g863" transform="translate(640.7129,255.7393)"><path d="m 0,0 c -2.598,0 -3.221,-2.008 -3.221,-3.587 0,-1.962 0.817,-3.49 3.125,-3.49 3.412,0 5.434,1.768 6.01,2.296 V 0.286 C 5.578,0.192 4.809,-0.047 3.605,-0.047 1.73,-0.047 0.961,0 0,0 m 5.914,6.17 c 0,3.827 -1.587,5.835 -4.376,5.835 -2.307,0 -3.799,-1.434 -3.799,-1.434 L -2.598,5.645 -3.895,5.31 -6.058,9.423 c 1.971,2.295 5.914,4.495 10.001,4.495 3.703,0 5.721,-2.392 5.721,-6.457 V -6.935 l 3.511,-0.764 v -1.34 c -1.057,0.049 -2.067,0.097 -3.078,0.097 -1.249,0 -2.451,-0.048 -3.655,-0.097 l -0.528,3.061 c -1.01,-1.147 -3.511,-3.539 -7.02,-3.539 -3.607,0 -5.626,2.487 -5.626,6.074 0,2.966 1.97,5.309 5.194,5.309 2.643,0 4.905,-0.86 7.452,-0.621 z" style="fill:#231f20;fill-opacity:1;fill-rule:nonzero;stroke:none" id="path865" inkscape:connector-curvature="0"/></g><g id="g867" transform="translate(664.3232,248.8047)"><path d="m 0,0 4.084,-0.765 v -1.339 c -3.748,0.191 -8.076,0.191 -11.875,0 v 1.339 L -3.656,0 v 28.696 l -3.654,0.765 v 1.34 c 2.261,0 4.617,0.191 6.83,0.525 H 0 Z" style="fill:#231f20;fill-opacity:1;fill-rule:nonzero;stroke:none" id="path869" inkscape:connector-curvature="0"/></g><g id="g871" transform="translate(674.4687,260.4268)"><path d="m 0,0 11.444,0.766 c 0,0 0.144,0.381 0.144,2.007 0,3.302 -1.973,5.024 -4.377,5.024 C 3.267,7.797 0.671,4.304 0,0 m -3.753,-2.728 c 0,8.133 5.483,11.958 11.204,11.958 3.848,0 7.938,-1.626 7.938,-7.459 L 14.712,-1.196 H -0.193 L -0.24,-2.057 c 0,-6.17 2.788,-9.279 7.885,-9.279 2.982,0 5.29,0.671 7.307,1.867 l 0.482,-1.147 c -1.394,-1.197 -4.616,-3.588 -8.942,-3.588 -6.78,0 -10.245,5.022 -10.245,11.476" style="fill:#231f20;fill-opacity:1;fill-rule:nonzero;stroke:none" id="path873" inkscape:connector-curvature="0"/></g><g id="g875" transform="translate(700.0957,255.7393)"><path d="m 0,0 c -2.594,0 -3.22,-2.008 -3.22,-3.587 0,-1.962 0.816,-3.49 3.125,-3.49 3.414,0 5.433,1.768 6.011,2.296 V 0.286 C 5.579,0.192 4.808,-0.047 3.607,-0.047 1.731,-0.047 0.962,0 0,0 m 5.916,6.17 c 0,3.827 -1.588,5.835 -4.374,5.835 -2.31,0 -3.801,-1.434 -3.801,-1.434 L -2.594,5.645 -3.895,5.31 -6.057,9.423 c 1.971,2.295 5.915,4.495 10.002,4.495 3.701,0 5.721,-2.392 5.721,-6.457 V -6.935 l 3.511,-0.764 v -1.34 c -1.06,0.049 -2.068,0.097 -3.077,0.097 -1.25,0 -2.454,-0.048 -3.656,-0.097 l -0.528,3.061 c -1.01,-1.147 -3.512,-3.539 -7.021,-3.539 -3.607,0 -5.626,2.487 -5.626,6.074 0,2.966 1.97,5.309 5.194,5.309 2.645,0 4.904,-0.86 7.453,-0.621 z" style="fill:#231f20;fill-opacity:1;fill-rule:nonzero;stroke:none" id="path877" inkscape:connector-curvature="0"/></g><g id="g879" transform="translate(729.6689,267.3613)"><path d="m 0,0 c -3.893,0 -5.963,-3.872 -5.963,-3.872 v -14.685 l 5.051,-0.764 v -1.34 c -3.752,0.191 -9.042,0.191 -12.839,0 v 1.34 l 4.134,0.764 v 18.224 l -3.654,0.762 V 1.77 c 2.262,0 4.616,0.192 6.829,0.526 h 0.479 v -4.4 h 0.098 c 0.047,-0.048 2.26,4.4 6.683,4.4 2.164,0 3.03,-0.956 3.03,-0.956 L 2.02,-4.734 0.577,-4.592 Z" style="fill:#231f20;fill-opacity:1;fill-rule:nonzero;stroke:none" id="path881" inkscape:connector-curvature="0"/></g><g id="g883" transform="translate(748.375,252.2002)"><path d="m 0,0 c 0,3.109 -2.886,3.539 -5.484,4.545 -3.556,1.386 -6.392,2.392 -6.392,6.455 0,3.828 3.027,6.457 7.738,6.457 2.167,0 4.571,-0.575 6.396,-1.482 l -1.393,-5.882 -1.395,0.239 -0.335,4.782 c 0,0 -0.961,0.909 -3.513,0.909 -2.74,0 -4.325,-1.435 -4.325,-3.827 0,-3.109 2.739,-3.444 5.241,-4.304 3.415,-1.197 7.115,-2.393 7.115,-6.697 0,-4.542 -4.23,-7.173 -8.557,-7.173 -4.858,0 -6.972,1.483 -6.972,1.483 l 1.396,6.121 1.391,-0.237 0.337,-4.785 c 0,0 1.01,-1.147 3.897,-1.147 C -1.639,-4.543 0,-2.63 0,0" style="fill:#231f20;fill-opacity:1;fill-rule:nonzero;stroke:none" id="path885" inkscape:connector-curvature="0"/></g><g id="g887" transform="translate(399.7378,251.1006)"><path d="m 0,0 v 10.187 c 0,5.501 -3.173,6.936 -5.481,6.936 -5,0 -7.501,-3.827 -7.501,-10.284 0,-6.218 2.981,-9.325 6.826,-9.325 2.308,0 4.809,1.243 6.156,2.486 M 3.655,-2.152 8.222,-2.774 V -4.112 C 5.482,-4.16 3.078,-4.497 0.48,-4.878 H 0 v 3.348 h -0.193 c 0,0 -2.789,-3.348 -7.598,-3.348 -5.914,0 -9.086,4.544 -9.086,11.717 0,7.653 5.721,11.718 11.636,11.718 1.683,0 3.894,-0.479 5.241,-1.434 V 26.4 l -3.655,0.766 v 1.339 c 2.308,0 4.617,0.191 6.877,0.525 h 0.433 z" style="fill:#231f20;fill-opacity:1;fill-rule:nonzero;stroke:none" id="path889" inkscape:connector-curvature="0"/></g><g id="g891" transform="translate(414.0195,260.4268)"><path d="m 0,0 11.445,0.766 c 0,0 0.144,0.381 0.144,2.007 0,3.302 -1.973,5.024 -4.377,5.024 C 3.269,7.797 0.673,4.304 0,0 m -3.75,-2.728 c 0,8.133 5.481,11.958 11.202,11.958 3.848,0 7.935,-1.626 7.935,-7.459 L 14.714,-1.196 H -0.191 l -0.05,-0.861 c 0,-6.17 2.789,-9.279 7.886,-9.279 2.982,0 5.29,0.671 7.309,1.867 l 0.481,-1.147 c -1.394,-1.197 -4.616,-3.588 -8.943,-3.588 -6.78,0 -10.242,5.022 -10.242,11.476" style="fill:#231f20;fill-opacity:1;fill-rule:nonzero;stroke:none" id="path893" inkscape:connector-curvature="0"/></g><g id="g895" transform="translate(451.4766,248.8047)"><path d="m 0,0 4.089,-0.765 v -1.339 c -3.75,0.191 -8.079,0.191 -11.878,0 v 1.339 L -3.653,0 v 28.696 l -3.655,0.765 v 1.34 c 2.259,0 4.618,0.191 6.829,0.525 H 0 Z" style="fill:#231f20;fill-opacity:1;fill-rule:nonzero;stroke:none" id="path897" inkscape:connector-curvature="0"/></g><g id="g899" transform="translate(461.6221,260.4268)"><path d="m 0,0 11.445,0.766 c 0,0 0.145,0.381 0.145,2.007 0,3.302 -1.973,5.024 -4.377,5.024 C 3.271,7.797 0.675,4.304 0,0 m -3.751,-2.728 c 0,8.133 5.482,11.958 11.205,11.958 3.847,0 7.933,-1.626 7.933,-7.459 L 14.716,-1.196 H -0.191 L -0.24,-2.057 c 0,-6.17 2.79,-9.279 7.886,-9.279 2.981,0 5.289,0.671 7.309,1.867 l 0.481,-1.147 c -1.396,-1.197 -4.616,-3.588 -8.944,-3.588 -6.779,0 -10.243,5.022 -10.243,11.476" style="fill:#231f20;fill-opacity:1;fill-rule:nonzero;stroke:none" id="path901" inkscape:connector-curvature="0"/></g><g id="g903" transform="translate(492.8301,252.2002)"><path d="m 0,0 c 0,3.109 -2.885,3.539 -5.481,4.545 -3.559,1.386 -6.396,2.392 -6.396,6.455 0,3.828 3.028,6.457 7.742,6.457 2.163,0 4.569,-0.575 6.396,-1.482 l -1.396,-5.882 -1.393,0.239 -0.338,4.782 c 0,0 -0.961,0.909 -3.51,0.909 -2.74,0 -4.327,-1.435 -4.327,-3.827 0,-3.109 2.741,-3.444 5.241,-4.304 3.414,-1.197 7.116,-2.393 7.116,-6.697 0,-4.542 -4.231,-7.173 -8.556,-7.173 -4.86,0 -6.975,1.483 -6.975,1.483 l 1.395,6.121 1.394,-0.237 0.338,-4.785 c 0,0 1.008,-1.147 3.895,-1.147 C -1.634,-4.543 0,-2.63 0,0" style="fill:#231f20;fill-opacity:1;fill-rule:nonzero;stroke:none" id="path905" inkscape:connector-curvature="0"/></g><g id="g907" transform="translate(405.7192,292.7656)"><path d="M 0,0 C -14.184,0 -22.842,5.442 -22.842,21.604 V 55.827 H -9.729 V 22.1 c 0,-7.999 3.297,-11.132 9.977,-11.132 6.185,0 9.4,3.216 9.4,11.132 v 33.067 l 13.193,2.144 V 21.604 C 22.841,5.607 14.102,0 0,0" style="fill:#231f20;fill-opacity:1;fill-rule:nonzero;stroke:none" id="path909" inkscape:connector-curvature="0"/></g><g id="g911" transform="translate(458.7861,294.167)"><path d="m 0,0 v 25.234 c 0,3.875 -1.237,5.69 -4.205,5.69 -3.629,0 -6.433,-4.041 -6.351,-4.123 V 0 h -13.44 v 38.345 l 10.554,2.144 2.062,-4.536 c 0,0.083 4.453,4.536 11.463,4.536 6.762,0 13.358,-3.134 13.358,-12.864 L 13.441,0 Z" style="fill:#231f20;fill-opacity:1;fill-rule:nonzero;stroke:none" id="path913" inkscape:connector-curvature="0"/></g><g id="g915" transform="translate(486.6592,338.5322)"><path d="m 0,0 c -4.452,0 -6.844,2.721 -6.844,6.514 0,3.794 2.392,6.514 6.844,6.514 4.536,0 6.845,-2.72 6.845,-6.514 C 6.845,2.721 4.536,0 0,0 m -7.092,-44.365 v 38.344 l 13.443,2.145 v -40.489 z" style="fill:#231f20;fill-opacity:1;fill-rule:nonzero;stroke:none" id="path917" inkscape:connector-curvature="0"/></g><g id="g919" transform="translate(522.6953,294.167)"><path d="m 0,0 h -13.275 l -12.948,38.345 12.535,2.144 8.165,-25.81 7.586,24.656 h 12.864 z" style="fill:#231f20;fill-opacity:1;fill-rule:nonzero;stroke:none" id="path921" inkscape:connector-curvature="0"/></g><g id="g923" transform="translate(550.0645,317.999)"><path d="M 0,0 H 11.297 C 11.215,5.689 9.566,8.246 6.104,8.246 2.557,8.246 0.248,5.442 0,0 m -0.246,-6.515 c 0,-5.36 2.557,-9.071 8.492,-9.071 6.68,0 11.793,2.887 11.793,2.969 l 3.546,-8.74 c 0,0 -7.34,-3.794 -17.399,-3.794 -14.184,0 -19.957,7.587 -19.957,20.945 0,14.184 8.577,20.863 20.285,20.863 12.783,0 16.823,-8.247 17.071,-18.636 l -1.321,-4.536 z" style="fill:#231f20;fill-opacity:1;fill-rule:nonzero;stroke:none" id="path925" inkscape:connector-curvature="0"/></g><g id="g927" transform="translate(602.9238,323.7715)"><path d="m 0,0 c 0,0 -1.568,0.741 -3.547,0.741 -5.029,0 -7.256,-3.958 -7.256,-3.958 V -29.604 H -24.244 V 8.74 l 12.369,2.145 0.33,-5.856 c 0.988,2.722 5.03,5.856 9.4,5.856 3.382,0 5.362,-1.238 5.362,-1.238 z" style="fill:#231f20;fill-opacity:1;fill-rule:nonzero;stroke:none" id="path929" inkscape:connector-curvature="0"/></g><g id="g931" transform="translate(620.4062,292.8477)"><path d="m 0,0 c -9.4,0 -14.925,2.969 -15.749,3.464 l 2.968,8.823 c 0.824,-0.577 6.02,-3.711 11.297,-3.711 3.049,0 4.617,1.403 4.617,3.546 0,5.525 -17.646,5.113 -17.646,17.647 0,8.411 7.42,12.04 16.41,12.04 9.482,0 14.101,-2.886 14.101,-2.886 l -3.135,-8.824 c -0.082,0.083 -4.369,3.133 -10.224,3.133 -3.051,0 -4.618,-1.401 -4.618,-3.463 0,-2.226 2.638,-3.381 6.266,-4.866 C 11.709,22.018 15.586,19.956 15.586,12.04 15.586,4.7 9.729,0 0,0" style="fill:#231f20;fill-opacity:1;fill-rule:nonzero;stroke:none" id="path933" inkscape:connector-curvature="0"/></g><g id="g935" transform="translate(646.7891,338.5322)"><path d="m 0,0 c -4.452,0 -6.846,2.721 -6.846,6.514 0,3.794 2.394,6.514 6.846,6.514 4.535,0 6.846,-2.72 6.846,-6.514 C 6.846,2.721 4.535,0 0,0 m -7.09,-44.365 v 38.344 l 13.44,2.145 v -40.489 z" style="fill:#231f20;fill-opacity:1;fill-rule:nonzero;stroke:none" id="path937" inkscape:connector-curvature="0"/></g><g id="g939" transform="translate(685.5537,297.1357)"><path d="m 0,0 c 0,0 -4.37,-4.288 -12.948,-4.288 -5.36,0 -10.39,2.722 -10.39,10.143 v 23.254 h -5.854 l 1.486,6.432 4.368,0.825 1.403,9.895 11.543,1.32 V 36.366 h 9.073 v -7.257 h -9.073 V 9.318 c 0,-2.885 0.827,-3.711 2.64,-3.711 1.402,0 3.216,0.826 4.454,1.733 z" style="fill:#231f20;fill-opacity:1;fill-rule:nonzero;stroke:none" id="path941" inkscape:connector-curvature="0"/></g><g id="g943" transform="translate(708.2305,310.7422)"><path d="m 0,0 c -8.41,-0.082 -9.236,-4.453 -9.236,-6.515 0,-2.226 0.908,-3.793 3.382,-3.793 3.545,0 5.854,3.628 5.854,3.628 z m 2.969,-16.575 -1.485,4.041 c -0.328,-0.33 -4.123,-5.361 -11.957,-5.361 -6.925,0 -11.131,3.876 -11.131,10.226 0,3.958 0.988,14.349 21.604,14.349 v 3.298 c 0,3.545 -2.557,4.618 -6.349,4.618 -5.442,0 -10.637,-3.216 -10.637,-3.216 l -3.382,8.163 c 0.331,0.33 6.597,4.371 17.317,4.371 10.391,0 16.41,-4.865 16.41,-13.771 v -26.718 z" style="fill:#231f20;fill-opacity:1;fill-rule:nonzero;stroke:none" id="path945" inkscape:connector-curvature="0"/></g><g id="g947" transform="translate(752.1855,297.1357)"><path d="m 0,0 c 0,0 -4.371,-4.288 -12.947,-4.288 -5.359,0 -10.391,2.722 -10.391,10.143 v 23.254 h -5.853 l 1.484,6.432 4.369,0.825 1.402,9.895 11.545,1.32 V 36.366 h 9.072 v -7.257 h -9.072 V 9.318 c 0,-2.885 0.826,-3.711 2.639,-3.711 1.402,0 3.217,0.826 4.453,1.733 z" style="fill:#231f20;fill-opacity:1;fill-rule:nonzero;stroke:none" id="path949" inkscape:connector-curvature="0"/></g><g id="g951" transform="translate(206.0034,197.4902)"><path d="m 0,0 c -5.816,-5.818 -15.247,-5.818 -21.065,0 l -90.871,90.871 c -5.817,5.817 -5.817,15.246 0,21.063 l 90.871,90.871 c 5.818,5.816 15.247,5.816 21.065,0 l 90.871,-90.871 c 5.817,-5.817 5.817,-15.246 0,-21.063 z" style="fill:#005db9;fill-opacity:1;fill-rule:nonzero;stroke:none" id="path953" inkscape:connector-curvature="0"/></g><g id="g955" transform="translate(194.7031,355.521)"><path d="M 0,0 C 16.782,0 22.333,-15.123 20.115,-19.563 12.346,-9.574 -11.24,-8.603 -16.51,-19.007 -23.722,-20.673 -14.709,0 0,0" style="fill:#ffffff;fill-opacity:1;fill-rule:nonzero;stroke:none" id="path957" inkscape:connector-curvature="0"/></g><g id="g959" transform="translate(181.6304,260.8916)"><path d="m 0,0 c 3.609,-5.826 3.192,-6.101 5.274,-9.294 2.771,-4.16 8.876,13.592 11.373,9.988 3.749,-16.65 10.268,-12.763 21.504,-7.49 8.044,-5.967 -27.193,-22.755 -24.139,-3.468 C 7.77,-14.429 7.77,-19.282 2.499,-18.729 l -3.748,9.853 c -3.189,-3.193 -2.77,-5.14 -6.241,-9.436 C -15.118,-13.179 -3.05,-4.716 0,0" style="fill:#ffffff;fill-opacity:1;fill-rule:nonzero;stroke:none" id="path961" inkscape:connector-curvature="0"/></g><g id="g963" transform="translate(200.4409,318.5957)"><path d="m 0,0 4.678,1.439 v 2.45 C 2.446,3.745 -1.657,3.672 -5.187,3.672 c -3.457,0 -7.199,0.073 -9.432,0.217 V 1.439 L -9.94,0.071 v -39.82 l -4.679,-1.442 v -2.445 c 2.233,0.072 6.337,0.212 9.795,0.212 3.529,0 7.27,-0.071 9.502,-0.212 v 2.445 L 0,-39.749 Z" style="fill:#ffffff;fill-opacity:1;fill-rule:nonzero;stroke:none" id="path965" inkscape:connector-curvature="0"/></g><g id="g967" transform="translate(244.9268,311.6899)"><path d="m 0,0 c 0,-5.762 -4.174,-8.643 -9.72,-10.224 v -0.147 c 8.639,-2.23 11.81,-7.487 11.81,-13.033 0,-7.849 -5.112,-13.466 -17.067,-13.466 -5.615,0 -8.323,0.361 -13.29,0.361 -3.384,0 -4.755,-0.142 -7.561,-0.217 v 2.451 l 4.681,1.225 V 7.129 l -4.681,1.224 v 2.449 c 0.503,-0.072 3.886,-0.217 7.561,-0.217 6.262,0.073 6.668,0.289 11.491,0.289 C -5.903,10.874 0,7.203 0,0 m -18.646,-12.17 h -2.566 v -21.459 h 4.725 c 6.409,0 8.279,4.823 8.279,10.586 0,6.338 -3.312,10.873 -10.438,10.873 m -2.566,3.096 h 1.583 c 7.491,0 9.334,2.018 9.334,8.352 0,5.691 -2.45,8.355 -7.632,8.355 h -3.285 z" style="fill:#ffffff;fill-opacity:1;fill-rule:nonzero;stroke:none" id="path969" inkscape:connector-curvature="0"/></g><g id="g971" transform="translate(182.7446,320.0435)"><path d="M 0,0 V 2.438 C -2.12,2.296 -4.434,2.221 -7.541,2.221 c -3.044,0 -5.959,0.148 -8.078,0.217 V 0 l 6.084,-1.363 v -23.462 c 0,-10.405 -2.814,-16.528 -10.828,-16.528 -7.211,0 -9.97,5.045 -9.97,16.528 V -1.436 L -26.034,0 v 2.438 c -2.053,-0.142 -5.755,-0.217 -9.063,-0.217 -3.174,0 -6.549,0.148 -8.601,0.217 V 0 l 4.239,-1.363 v -24.182 c 0,-12.413 5.07,-20.091 17.311,-20.091 10.514,0 16.327,7.176 16.327,20.091 v 24.182 z" style="fill:#ffffff;fill-opacity:1;fill-rule:nonzero;stroke:none" id="path973" inkscape:connector-curvature="0"/></g></g></g></g></svg>